<?xml version="1.0" encoding="UTF-8"?>
<svg id="Camada_2" data-name="Camada 2" xmlns="http://www.w3.org/2000/svg" viewBox="0 0 403.31 66.17">
  <defs>
    <style>
      .cls-1 {
        fill: #ff6900;
      }
    </style>
  </defs>
  <g id="Layer_21" data-name="Layer 21">
    <g id="Layer_20" data-name="Layer 20">
      <path class="cls-1" d="m.33,58.09c-.38-.38-.47-.94-.09-1.41l4.14-4.89c.38-.47.85-.47,1.31-.09,4.14,3.29,10.53,6.58,17.86,6.58,8.84,0,14.1-4.42,14.1-10.9,0-5.45-3.1-9.12-13.35-10.43l-3.2-.47c-12.41-1.69-18.8-7.61-18.8-17.67C2.31,7.42,10.48.09,23.17.09c7.52,0,14.76,2.45,19.46,5.92.47.38.56.85.19,1.32l-3.2,5.17c-.38.47-.85.47-1.31.19-5.17-3.2-9.96-4.79-15.42-4.79-7.8,0-12.13,4.23-12.13,10.34,0,5.36,3.57,8.93,13.44,10.25l3.1.47c12.5,1.69,18.8,7.43,18.8,17.86,0,11.18-7.9,19.27-23.31,19.27-9.02,0-17.77-3.67-22.46-7.99"/>
    </g>
    <g id="Layer_19" data-name="Layer 19">
      <path class="cls-1" d="m49.31,1.13h9.21c.52,0,.94.42.94.94v62.03c0,.52-.42.94-.94.94h-9.21c-.52,0-.94-.42-.94-.94V2.07c0-.52.42-.94.94-.94Z"/>
    </g>
    <g id="Layer_18" data-name="Layer 18">
      <path class="cls-1" d="m64.35,2.07c0-.56.38-.94.94-.94h11.19c.75,0,1.22.28,1.5.94l16.17,36.47h.38L110.4,2.07c.28-.66.75-.94,1.5-.94h11c.56,0,.94.38.94.94v62.04c0,.56-.38.94-.94.94h-10.62c-.56,0-.94-.38-.94-.94V28.1h-.38l-11.84,26.98c-.38.85-.94,1.22-1.79,1.22h-6.49c-.85,0-1.41-.38-1.79-1.22l-11.84-26.98h-.38v36c0,.56-.38.94-.94.94h-10.62c-.56,0-.94-.38-.94-.94V2.07Z"/>
    </g>
    <g id="Layer_17" data-name="Layer 17">
      <path class="cls-1" d="m124.97,50.47c-1.5-4.89-1.88-8.65-1.88-17.39s.38-12.5,1.88-17.39c3.38-10.43,12.69-15.7,23.97-15.7s20.58,5.26,23.97,15.7c1.6,4.89,1.88,8.65,1.88,17.39s-.28,12.5-1.88,17.39c-3.38,10.43-12.69,15.7-23.97,15.7s-20.59-5.26-23.97-15.7m32.15-4.7c.75-2.16.94-5.08.94-12.69s-.19-10.53-.94-12.69c-1.13-3.57-4.04-5.64-8.18-5.64s-7.05,2.07-8.18,5.64c-.75,2.16-.94,5.08-.94,12.69s.19,10.53.94,12.69c1.13,3.57,4.04,5.64,8.18,5.64s7.05-2.07,8.18-5.64"/>
    </g>
    <g id="Layer_16" data-name="Layer 16">
      <path class="cls-1" d="m173.1,2.07c0-.56.38-.94.94-.94h13.82c.66,0,1.32.28,1.6.94l19.27,36.19h.38V2.07c0-.56.38-.94.94-.94h13.16c.56,0,.94.38.94.94v62.04c0,.56-.38.94-.94.94h-13.82c-.66,0-1.31-.28-1.6-.94l-19.08-36.09h-.56v36.09c0,.56-.38.94-.94.94h-13.16c-.56,0-.94-.38-.94-.94V2.07Z"/>
    </g>
    <g id="Layer_15" data-name="Layer 15">
      <path class="cls-1" d="m227.15,58.56c-.38-.38-.47-.94-.09-1.32l2.26-2.82c.38-.47.94-.47,1.32-.09,4.23,3.29,10.9,6.58,18.33,6.58,10.24,0,16.54-5.17,16.54-13.07,0-6.3-3.57-10.9-15.32-12.41l-2.91-.38c-12.5-1.6-18.42-7.61-18.42-16.92,0-11.09,7.9-17.95,20.12-17.95,7.05,0,13.82,2.16,18.23,5.36.47.28.56.85.19,1.32l-1.88,2.91c-.38.47-.85.47-1.32.19-5.08-3.1-10.06-4.7-15.51-4.7-9.12,0-14.47,5.08-14.47,12.5,0,6.49,4.14,10.72,15.04,12.13l2.91.38c12.97,1.69,18.7,7.71,18.7,17.2,0,10.81-7.71,18.52-22.56,18.52-8.36,0-16.73-3.57-21.15-7.43"/>
    </g>
    <g id="Layer_14" data-name="Layer 14">
      <path class="cls-1" d="m295.02,2.07c.19-.56.56-.94,1.13-.94h3.38c.66,0,.94.38,1.13.94l22.18,62.04c.19.56-.09.94-.66.94h-3.67c-.66,0-1.03-.19-1.22-.94l-5.64-15.7h-27.82l-5.64,15.7c-.28.75-.66.94-1.22.94h-3.67c-.56,0-.85-.38-.66-.94l22.37-62.04Zm14.85,41.17l-11.94-33.46h-.28l-12.03,33.46h24.25Z"/>
    </g>
    <g id="Layer_13" data-name="Layer 13">
      <path class="cls-1" d="m336.38,65.04c-.56,0-.94-.38-.94-.94v-25.29l-19.18-36.66c-.19-.47.09-1.03.75-1.03h3.67c.75,0,1.03.19,1.41.94l16.07,30.55h.28l15.79-30.55c.38-.75.66-.94,1.41-.94h3.57c.75,0,.94.56.75,1.03l-19.17,36.66v25.29c0,.56-.38.94-.94.94h-3.48Z"/>
    </g>
    <g id="Layer_12" data-name="Layer 12">
      <path class="cls-1" d="m359.6,58.56c-.38-.38-.47-.94-.09-1.32l2.26-2.82c.38-.47.94-.47,1.32-.09,4.23,3.29,10.9,6.58,18.33,6.58,10.24,0,16.54-5.17,16.54-13.07,0-6.3-3.57-10.9-15.32-12.41l-2.91-.38c-12.5-1.6-18.42-7.61-18.42-16.92,0-11.09,7.9-17.95,20.11-17.95,7.05,0,13.82,2.16,18.24,5.36.47.28.56.85.19,1.32l-1.88,2.91c-.38.47-.85.47-1.32.19-5.08-3.1-10.06-4.7-15.51-4.7-9.12,0-14.47,5.08-14.47,12.5,0,6.49,4.14,10.72,15.04,12.13l2.91.38c12.97,1.69,18.7,7.71,18.7,17.2,0,10.81-7.71,18.52-22.56,18.52-8.37,0-16.73-3.57-21.15-7.43"/>
    </g>
  </g>
</svg>