<?xml version="1.0" encoding="utf-8"?><!DOCTYPE svg PUBLIC "-//W3C//DTD SVG 1.1//EN" "http://www.w3.org/Graphics/SVG/1.1/DTD/svg11.dtd"><svg width="812" height="755" viewBox="0 0 812 755" xmlns="http://www.w3.org/2000/svg" xmlns:xlink="http://www.w3.org/1999/xlink"><view id="rm_icon_caret" viewBox="0 73.846 343.8 173.5"/><svg viewBox="0 0 343.8 173.5" width="343.8" height="173.5" y="73.846" xmlns="http://www.w3.org/2000/svg"><path d="M1 1.8l170.8 170.7L342.5 1.8z"/></svg><view id="rm_icon_close" viewBox="600 494.1 37.8 36.3"/><svg id="bLayer_1" viewBox="0 0 37.8 36.3" width="37.8" height="36.3" x="600" y="494.1" xmlns="http://www.w3.org/2000/svg"><style>.bst0{fill:#231f20}</style><path class="bst0" d="M5.3 35.9L.5 31.2 32.5.5l4.8 4.6z"/><path class="bst0" d="M32.5 35.9L.5 5.1 5.3.5l32 30.7z"/></svg><view id="rm_icon_downarrow" viewBox="600 423 114.5 71.1"/><svg viewBox="-290.7 361.2 114.5 71.1" width="114.5" height="71.1" x="600" y="423" xmlns="http://www.w3.org/2000/svg"><path d="M-290.7 370.7l10.3-9.5 47 50.6 47-50.6 10.2 9.5-57.2 61.6z"/></svg><view id="rm_icon_download" viewBox="714.5 423 81.7 70.8"/><svg viewBox="0 0 81.7 70.8" width="81.7" height="70.8" x="714.5" y="423" xmlns="http://www.w3.org/2000/svg"><path class="dst0" d="M81.3 70h-80V34h9v27h62V34h9z"/><path class="dst0" d="M36.3.6h8v42.5h-8z"/><path class="dst0" d="M40.3 52.2l-24-24 5.7-5.7 18.3 18.4 18.4-18.4 5.6 5.7z"/></svg><view id="rm_icon_leftarrow" viewBox="296.5 247.346 212 211"/><svg width="212" height="211" viewBox="0 0 212 211" x="296.5" y="247.346" xmlns="http://www.w3.org/2000/svg"><path d="M209 208.5H3V2.5h206z"/><path fill="currentColor" class="ea" d="M126.57 47.74L136.12 58l-50.56 46.99 50.56 47-9.55 10.25L65 104.99l61.57-57.25z"/></svg><view id="rm_icon_logo" viewBox="0 0 600 73.846"/><svg data-name="Layer 1" width="600" height="73.846" viewBox="0 0 1300 160" xmlns="http://www.w3.org/2000/svg"><path d="M334.4 50.9h-1.1c-8-9.7-19-15.6-33.6-15.6-24.5 0-39.9 15.9-46.2 36.4-1.8-30.1-28.1-35.7-55-35.7-13.4 0-27.2 2.4-37.7 8.2-10.4 6.1-18.4 16.6-19.1 31.8 0 0-.1 1.9-.2 5.2h35.8c.2-3.1.6-5.4.7-5.4 1.8-9.7 9.1-15 19.7-15 7.9 0 18.6 3.1 18.6 11.9 0 7.2-3.6 9.5-10.2 10.8-24.6 5-61.9 2.9-67.6 32.3-2-13.7-7.4-28.7-22-32.2v-.4c16.3-6.3 24.3-22.2 24.3-39C140.8 12.7 111.1 0 83.4 0H0v155.8h41.4v-55.2h33.9c19.1 0 21.8 15.8 22.8 31.5.4 4.4 1.1 19.2 4.6 23.7h42.6c-2.8-2.8-4.2-10-5.1-17.3 5.7 14.1 20.2 20.8 37.5 20.8 14 0 28.8-4.1 38.7-14.4.5 3.8.9 7.7 2.3 10.9h38.7c-4.5-8.7-3.9-19.8-3.9-29.7v-5.7c6.4 21.9 22.1 38.7 49.1 38.7 13.6 0 24.9-5.4 32.4-17.3h.4v14.1h37V0h-38.1v50.9zM78.6 68.2H41.4V32.5h35.5c11.4 0 20.6 5.5 20.6 17.1 0 11.7-6.6 18.6-18.9 18.6zm113.7 67.6c-8.6 0-16.1-3.8-16.1-13.3 0-9.2 7.3-12.8 15.9-14.9 8.4-2.2 18.3-2.9 23.8-6.3.9 24.2-5.3 34.5-23.6 34.5zm119.9-5.6c-17.7 0-23.6-17.8-23.6-33.8 0-14.9 5.9-31.3 23.6-31.3 16.8 0 22.9 15.5 22.9 32.4 0 14.9-4.1 32.7-22.9 32.7zM647.7 0h39.2v155.8h-39.2zM1071.5 50.9h-.3c-7.9-9.7-19-15.6-33.5-15.6-26.3 0-42 18.2-47.4 40.9-7.8-24-27.2-40.2-57.6-40.2-27.1 0-50.6 15.7-59.6 39.7V0h-61L783 99.6h-.1L753.6 0h-61.3v155.8h39.2V45.7l35.2 110.2h32.2l33.9-110.2v110.2H873v-34.4c8.6 24.4 30.9 38.3 60.5 38.3 26.2 0 51.2-11.3 58.3-38.1 6.6 21.3 22.2 37.5 48.7 37.5 13.6 0 24.9-5.4 32.4-17.3h.7V156h37V0h-39.2v50.9zM932.6 61.6c12.9 0 22.2 10.9 22.9 23.9h-47.8c2.2-14.1 11.3-23.9 24.9-23.9zm23.3 59.6c-3.6 7.6-12.7 12.7-22 12.7-16.3 0-25.6-10.5-26.3-26.7h81.1c.6 4.8 1.6 9.6 3 14.1h-35.8zm94.2 9c-17.7 0-23.6-17.8-23.6-33.8 0-14.9 5.9-31.3 23.6-31.3 16.7 0 22.9 15.5 22.9 32.4-.1 14.9-4.1 32.7-22.9 32.7zM378.8 0h38.1v29.2h-38.1zM1116.4 0h38.1v29.2h-38.1zM642.2 126.1V75c0-33.1-27.2-39-55-39-13.4 0-27.2 2.4-37.6 8.2-8.5 5-15.4 13-18 24.1-8.2-21.6-30.4-32.3-54.8-32.3-31.9 0-53.8 18.8-59.9 46.9V39h-38.1v116.9h38.1v-41.1c6.4 27.3 29.8 44.8 59.9 44.8 22 0 40.6-9.3 50.9-25.4 4.3 17.1 19.9 25.2 38.9 25.2 14 0 28.8-4.1 38.7-14.4.5 3.8.9 7.7 2.3 10.9h38.7c-4.5-8.7-4.1-19.9-4.1-29.8zm-61.1 9.7c-8.6 0-16.1-3.8-16.1-13.3 0-9.2 7.3-12.8 15.9-14.9 8.4-2.2 18.3-2.9 23.8-6.3.9 24.2-5.2 34.5-23.6 34.5zm13.8-52.3c-23 4.6-57.1 3.1-66.1 26.9h-30.3c-1.8 11.9-8.6 20-22 20-16.3 0-22.9-15.5-22.9-30.6 0-16.2 3.4-34.4 24.9-34.4 9.4 0 17.8 6.5 18.7 15.8H566c.2-3.1.7-5.4.7-5.4 1.8-9.7 9.1-15 19.7-15 7.9 0 18.6 3.1 18.6 11.9.1 7.2-3.5 9.5-10.1 10.8zM1269.5 126.1V75c0-33.1-27.2-39-55.1-39-13.4 0-27.2 2.4-37.6 8.2-10.4 6.1-18.3 16.6-19 31.8 0 0-.1 1.9-.2 5.2h35.8c.2-3.1.6-5.4.7-5.4 1.8-9.7 9.1-15 19.7-15 7.9 0 18.6 3.1 18.6 11.9 0 7.2-3.6 9.5-10.2 10.8-24.5 4.9-61.5 2.9-67.5 31.8V39h-38.1v116.9h38.1v-23.1c3.8 18.1 19.7 26.6 39.2 26.6 14 0 28.8-4.1 38.7-14.4.5 3.8.9 7.7 2.3 10.9h38.7c-4.6-8.7-4.1-19.9-4.1-29.8zm-61.3 9.7c-8.6 0-16.1-3.8-16.1-13.3 0-9.2 7.3-12.8 15.9-14.9 8.4-2.2 18.3-2.9 23.8-6.3.9 24.2-5.2 34.5-23.6 34.5z"/><g><path d="M1279.1 7.3h7.4c2.6 0 5.1 1.2 5.1 4.1 0 1.6-.8 3.1-2.3 3.7 1.6.4 2 2.1 2.1 3.5 0 .6.1 2.8.6 3.3h-3.8c-.3-.5-.4-1.9-.4-2.3-.1-1.5-.3-3-2.1-3h-2.9v5.3h-3.8V7.3zm3.8 6.3h3.2c1.1 0 1.8-.6 1.8-1.7s-.9-1.6-1.9-1.6h-3v3.3z"/><path d="M1285.4 0c-8.1 0-14.6 6.5-14.6 14.6s6.5 14.6 14.6 14.6 14.6-6.5 14.6-14.6S1293.5 0 1285.4 0zm0 25.4c-6 0-10.8-4.8-10.8-10.8 0-6 4.8-10.8 10.8-10.8 6 0 10.8 4.8 10.8 10.8 0 6-4.8 10.8-10.8 10.8z"/></g></svg><view id="rm_icon_playcircle" viewBox="0 247.346 296.5 295.5"/><svg width="296.5" height="295.5" viewBox="0 0 296.5 295.5" y="247.346" xmlns="http://www.w3.org/2000/svg"><path d="M113.56 64.04l104.73 83.58-104.73 83.58z"/><path d="M148.91 11.62c-75.111 0-136 60.889-136 136 0 75.11 60.889 136 136 136 75.11 0 136-60.89 136-136 0-75.111-60.889-136-136-136zm0 251c-63.513 0-115-51.487-115-115s51.487-115 115-115 115 51.487 115 115-51.487 115-115 115z"/></svg><view id="rm_icon_rightarrow" viewBox="600 0 212 211"/><svg width="212" height="211" viewBox="0 0 212 211" x="600" xmlns="http://www.w3.org/2000/svg"><path d="M3 2.5h206v206H3z"/><path fill="currentColor" class="ha" d="M85.43 163.26L75.88 153l50.56-46.99-50.56-47 9.55-10.25L147 106.01l-61.57 57.25z"/></svg><view id="rm_icon_search" viewBox="458.3 73.846 52.78 51.16"/><svg id="iLayer_1" data-name="Layer 1" width="52.78" height="51.16" viewBox="0 0 52.78 51.16" x="458.3" y="73.846" xmlns="http://www.w3.org/2000/svg"><defs><style>.icls-1{stroke:#000;stroke-miterlimit:10;stroke-width:2px}</style></defs><path class="icls-1" d="M50.87 45.21l-15-12.74A19.21 19.21 0 1 0 32 36.19l15.4 13.07zM20.7 34.6a13.9 13.9 0 1 1 13.9-13.9 13.91 13.91 0 0 1-13.9 13.9z"/></svg><view id="rm_icon_uparrow" viewBox="343.8 73.846 114.5 71.1"/><svg viewBox="-290.7 361.2 114.5 71.1" width="114.5" height="71.1" x="343.8" y="73.846" xmlns="http://www.w3.org/2000/svg"><path d="M-176.2 422.7l-10.2 9.6-47-50.5-47 50.6-10.3-9.6 57.2-61.6z"/></svg><view id="rm_social_facebook" viewBox="600 211 212 212"/><svg viewBox="0 0 212 212" width="212" height="212" x="600" y="211" xmlns="http://www.w3.org/2000/svg"><path d="M0 0h212v212H0z"/><path fill="currentColor" d="M131.9 86.4h-17.6V74.8c0-4.3 2.9-5.3 4.9-5.3h12.4V50.4l-17.1-.1c-19 0-23.3 14.2-23.3 23.3v12.7h-11V106h11v55.6h23.1V106h15.6l2-19.6z"/></svg><view id="rm_social_instagram" viewBox="0 542.846 212 212"/><svg viewBox="0 0 212 212" width="212" height="212" y="542.846" xmlns="http://www.w3.org/2000/svg"><path d="M0 0h212v212H0z"/><path fill="currentColor" d="M136.4 68.6c-3.8.1-6.8 3.2-6.7 7 .1 3.8 3.2 6.8 7 6.7 3.7-.1 6.7-3.1 6.7-6.9 0-3.8-3-6.8-6.8-6.9-.1 0-.2 0-.2.1zm-30.4 8c-16.2 0-29.4 13.1-29.4 29.4 0 16.2 13.1 29.4 29.4 29.4 16.2 0 29.3-13.1 29.4-29.3.1-16.2-13-29.4-29.2-29.4-.1-.1-.2-.1-.2-.1zm-.2 48.3c-10.5-.1-18.9-8.7-18.8-19.2.1-10.5 8.7-18.9 19.2-18.8 10.4.1 18.8 8.7 18.8 19.1-.1 10.5-8.6 19-19.1 18.9h-.1z"/><path fill="currentColor" d="M163.1 93.9c.1-6.2-.3-12.4-1.1-18.6-2-12.6-9.4-21-21.7-24.6-5.4-1.6-10.9-1.7-16.4-1.8-9.9-.1-19.8-.2-29.7-.1-6.2-.1-12.4.3-18.6 1.2-12.8 2.1-21.2 9.6-24.8 22.2-1.5 5.2-1.6 10.6-1.7 15.9-.1 9.9-.2 19.8-.1 29.7 0 5.6.2 11.2.8 16.7.6 7.4 3.9 14.3 9.3 19.4 5.9 5.6 13.2 8.1 21.1 8.5 8.6.4 17.2.5 25.8.7v-.1c4 0 8 .1 12 0 6.2-.2 12.5-.2 18.6-1.1 12.9-2.1 21.4-9.6 24.9-22.4 1.4-5.2 1.5-10.5 1.6-15.8 0-9.9.1-19.9 0-29.8zm-10.9 37.4c-.3 6-2.2 11.4-6.9 15.6-3.3 2.9-7.4 4.6-11.8 5-4.5.5-9.1.7-13.7.7-9.3.1-18.6.1-27.9 0-5 0-9.9-.3-14.8-.9-9.9-1.5-16.1-8.1-17.2-18.1-.5-4.6-.7-9.4-.7-14-.1-9.1-.1-18.2 0-27.2 0-5 .3-10.1 1-15.1 1.5-10 8.2-16.2 18.2-17.3 4.6-.5 9.3-.7 13.9-.7 9.1-.1 18.2-.1 27.2 0 5 0 10.1.3 15.1.9 10 1.5 16.2 8.2 17.3 18.2.5 4.5.6 9 .7 13.5.1 4.7 0 9.4 0 14.1.2 0 .1 16.9-.4 25.3z"/></svg><view id="rm_social_twitter" viewBox="212 542.846 212 212"/><svg viewBox="0 0 212 212" width="212" height="212" x="212" y="542.846" xmlns="http://www.w3.org/2000/svg"><path d="M0 0h212v212H0z"/><path fill="currentColor" d="M166.4 68.6c-4.5 2-9.3 3.3-14.2 3.9 5.2-3.1 9-8 10.9-13.7-4.9 2.9-10.2 4.9-15.7 6-9.4-10-25.1-10.5-35-1.1-6.4 6.1-9.2 15.1-7.2 23.7-19.9-1-38.5-10.4-51.1-25.9-6.6 11.3-3.2 25.8 7.7 33.1-3.9-.1-7.8-1.2-11.2-3.1v.3c0 11.8 8.3 21.9 19.9 24.2-3.6 1-7.5 1.1-11.2.4 3.2 10.1 12.5 17 23.1 17.2-8.8 6.9-19.6 10.6-30.8 10.6-2 0-3.9-.1-5.9-.4 11.3 7.3 24.5 11.1 38 11.1 45.6 0 70.5-37.8 70.5-70.5 0-1.1 0-2.1-.1-3.2 4.8-3.4 8.9-7.7 12.3-12.6z"/></svg></svg>