<?xml version="1.0" standalone="no"?>
<!DOCTYPE svg PUBLIC "-//W3C//DTD SVG 20010904//EN"
 "http://www.w3.org/TR/2001/REC-SVG-20010904/DTD/svg10.dtd">
<svg version="1.0" xmlns="http://www.w3.org/2000/svg"
 width="260.000000pt" height="260.000000pt" viewBox="0 0 260.000000 260.000000"
 preserveAspectRatio="xMidYMid meet">
<metadata>
Created by potrace 1.11, written by Peter Selinger 2001-2013
</metadata>
<g transform="translate(0.000000,260.000000) scale(0.100000,-0.100000)"
fill="#000000" stroke="none">
<path d="M0 1280 l0 -630 168 0 169 0 0 203 c1 111 1 212 2 224 1 21 3 21 164
19 130 -2 168 -6 195 -20 55 -29 83 -92 97 -223 12 -116 18 -159 26 -180 l9
-23 314 0 c242 0 315 3 318 13 2 6 4 199 4 429 -1 229 1 415 3 412 4 -3 234
-716 263 -812 l12 -42 131 0 131 0 118 382 c65 211 123 400 129 421 7 20 14
37 17 37 4 0 6 -188 6 -417 l0 -418 162 -3 162 -2 0 620 0 620 -245 0 -244 0
-25 -82 c-36 -120 -128 -433 -177 -602 -29 -102 -35 -108 -49 -56 -6 25 -41
144 -77 265 -36 121 -82 276 -102 345 l-38 125 -246 3 -247 2 0 -566 c0 -312
-2 -565 -4 -563 -2 2 -7 38 -11 79 -3 41 -8 98 -11 125 -11 121 -66 219 -146
258 l-31 15 41 21 c44 23 98 84 128 146 30 62 27 234 -5 294 -31 59 -97 121
-162 152 -108 53 -160 58 -571 59 l-378 0 0 -630z m718 347 c94 -51 95 -200 1
-249 -28 -14 -63 -18 -202 -19 -93 0 -171 2 -175 6 -6 6 -11 264 -5 277 2 3
81 5 176 4 144 -1 177 -4 205 -19z"/>
</g>
</svg>
